<?xml version="1.0" encoding="UTF-8"?>
<svg width="640" height="512" version="1.1" viewBox="0 0 169 135" xml:space="preserve" xmlns="http://www.w3.org/2000/svg" xmlns:xlink="http://www.w3.org/1999/xlink"><defs><linearGradient id="a" x1="88.9" x2="88.9" y1="27.8" y2="72.2" gradientTransform="matrix(1 0 0 1.52 3.48e-6 -2.3e-6)" gradientUnits="userSpaceOnUse"><stop stop-opacity=".628" offset="0"/><stop stop-opacity="0" offset="1"/></linearGradient></defs><path d="m3.48e-6 4.39e-6h169v135h-169z" fill="#010915" stroke-width=".529" style="paint-order:stroke markers fill"/><g stroke-linejoin="round"><path d="m135 0v67.7h-84.7v33.9h50.8v50.8" fill="none" stroke="#840" stroke-width="21.2"/><path d="m135 0v67.7h-84.7v33.9h50.8v50.8" fill="none" stroke="#010915" stroke-width="19.1"/><path d="m122 39.8h7.62v11h-7.62z" fill="#010915" stroke="#010915" stroke-width="3.18" style="paint-order:stroke fill markers"/></g><g transform="matrix(0 2 -2 0 33.9 50.8)"><path d="m4.23 8.47h8.47v4.23l-2.12 2.12h-4.23l-2.12-2.12z" fill="none" stroke="#fff" stroke-linejoin="round" stroke-width=".794"/><g transform="translate(2.16e-8 -.132)" fill="#010915" stroke="#fff" stroke-linejoin="round" stroke-width=".529"><path d="m5.82 7.94-4e-7 -3.17 2.65-2.65 2.65 2.65v3.17l1e-6 0.529 1.06 1.85v4.76c-2.46-4.21-4.93-4.26-7.41 0l3e-7 -4.76 1.06-1.85z"/><g stroke-linecap="round"><path d="m6.88 5.56 1.06-1.06"/><path d="m10.1 5.56-1.06-1.06"/><path d="m6.88 7.14 1.06-1.06"/><path d="m10.1 7.14-1.06-1.06"/><path d="m6.88 8.73 1.06-1.06"/><path d="m10.1 8.73-1.06-1.06"/><path d="m6.88 10.3 1.06-1.06"/><path d="m10.1 10.3-1.06-1.06"/></g></g><path d="m0 0h16.9v16.9h-16.9z" fill="none" opacity=".25" stroke-width=".529" style="paint-order:stroke markers fill"/></g><g transform="matrix(2 0 0 2 119 84.7)" stroke-linejoin="round"><path d="m8.47 0.905a7.56 7.56 0 0 0-3.4 0.822l-0.613-0.613-2.34 1-1 2.34 0.613 0.613a7.56 7.56 0 0 0-0.822 3.4 7.56 7.56 0 0 0 0.822 3.4l-0.613 0.613 1 2.34 2.34 1 0.613-0.613a7.56 7.56 0 0 0 3.4 0.822 7.56 7.56 0 0 0 3.4-0.822l0.613 0.613 2.34-1 1-2.34-0.613-0.613a7.56 7.56 0 0 0 0.822-3.4 7.56 7.56 0 0 0-0.813-3.41l0.604-0.604-1-2.34-2.34-1-0.604 0.604a7.56 7.56 0 0 0-3.41-0.813z" fill="none" stroke="#fff" stroke-linecap="round" stroke-width=".529" style="paint-order:stroke markers fill"/><path d="m7.67 4.23v0.706a3.62 3.62 0 0 0-2.73 2.73h-0.706v1.59h0.706a3.62 3.62 0 0 0 2.73 2.73v0.706h1.59v-0.706a3.62 3.62 0 0 0 2.73-2.73h0.706v-1.59h-0.698a3.62 3.62 0 0 0-2.74-2.74v-0.698z" fill="none" stroke="#fff" stroke-linecap="round" stroke-width=".529" style="paint-order:stroke markers fill"/><path d="m0 0h16.9v16.9h-16.9z" fill-opacity="0" stroke-width="3.18" style="paint-order:stroke fill markers"/></g><g transform="matrix(-.106 2 -2 -.106 107 51.3)"><path d="m6.35 4.23c0.529 2.12 2.38 12.2 2.38 12.2s1.32-10.1 1.85-12.2z" fill="#d956da"/><path d="m10.6 4.23a2.12 2.12 0 0 1-2.12 2.12 2.12 2.12 0 0 1-2.12-2.12 2.12 2.12 0 0 1 2.12-2.12 2.12 2.12 0 0 1 2.12 2.12z" fill="#ff41c4" stroke-width=".529" style="paint-order:stroke markers fill"/></g><g transform="matrix(0 2 -2 0 220 50.8)" fill="none" stroke="#ff3030"><path d="m14.8-21.2v123" stroke-width=".794"/><path d="m12.7 44.5-4.23-2.12-4.23 2.12" stroke-width="1.59"/><path d="m2.12-21.2-1e-7 123" stroke-width=".794"/><g stroke-width="1.59"><path d="m12.7 57.2-4.23-2.12-4.23 2.12"/><path d="m12.7 57.2-4.23-2.12-4.23 2.12"/><path d="m12.7 69.9-4.23-2.12-4.23 2.12"/><path d="m12.7 82.6-4.23-2.12-4.23 2.12"/><path d="m12.7 95.3-4.23-2.12-4.23 2.12"/><path d="m12.7 19.1-4.23-2.12-4.23 2.12"/><path d="m12.7 31.8-4.23-2.12-4.23 2.12"/><path d="m12.7 6.35-4.23-2.12-4.23 2.12"/></g></g><path d="m144 25.4a9 9 0 0 1-9 9 9 9 0 0 1-9-9 9 9 0 0 1 9-9 9 9 0 0 1 9 9z" fill="#8fa" stroke-width=".529" style="paint-order:stroke markers fill"/><g transform="rotate(-50 59.2 95)"><path d="m51.9 83.6-4.23 10.6 4.23-1.59 4.23 1.59z" fill="#fd6"/><path d="m51.3 66.7h1.06v4.23h-1.06z" fill="#faa" stroke-width=".529" style="paint-order:stroke markers fill"/></g><path d="m167 102a31.7 31.7 0 0 1-31.8 31.8 31.7 31.7 0 0 1-31.8-31.8 31.7 31.7 0 0 1 31.8-31.7 31.7 31.7 0 0 1 31.8 31.7z" fill="#ff3c00" fill-opacity=".307" stroke="#ff3c00" stroke-width=".794" style="paint-order:stroke markers fill"/><path d="m3.48e-6 4.39e-6h169v135h-169z" fill="url(#a)" stroke-width=".98" style="paint-order:stroke markers fill"/><path d="m23.1 33.9q-0.272 0-0.444-0.173t-0.173-0.444v-12.8h-4.4q-0.272 0-0.444-0.173-0.173-0.198-0.173-0.444v-2.64q0-0.272 0.173-0.444 0.173-0.173 0.444-0.173h13.3q0.272 0 0.444 0.173t0.173 0.444v2.64q0 0.247-0.173 0.444-0.173 0.173-0.444 0.173h-4.4v12.8q0 0.272-0.173 0.444-0.173 0.173-0.444 0.173zm11.8 0q-0.272 0-0.444-0.173-0.173-0.173-0.173-0.444v-16.1q0-0.272 0.173-0.444 0.173-0.173 0.444-0.173h6.72q3.19 0 5.01 1.48 1.85 1.46 1.85 4.15 0 1.75-0.864 2.96-0.84 1.21-2.22 1.83l3.41 6.07q0.0741 0.148 0.0741 0.272 0 0.198-0.173 0.37-0.148 0.148-0.37 0.148h-3.26q-0.469 0-0.691-0.222-0.222-0.247-0.321-0.444l-2.82-5.43h-2.54v5.48q0 0.272-0.173 0.444-0.173 0.173-0.444 0.173zm3.8-9.58h2.86q1.16 0 1.73-0.568 0.593-0.568 0.593-1.56 0-0.963-0.568-1.56-0.543-0.593-1.75-0.593h-2.86zm13.3 9.58q-0.272 0-0.444-0.173t-0.173-0.444v-16.1q0-0.272 0.173-0.444t0.444-0.173h3.31q0.272 0 0.444 0.173t0.173 0.444v16.1q0 0.272-0.173 0.444t-0.444 0.173zm6.4 0q-0.198 0-0.37-0.148-0.148-0.173-0.148-0.37 0-0.123 0.0247-0.222l5.8-15.9q0.0741-0.272 0.296-0.469 0.247-0.222 0.667-0.222h3.65q0.42 0 0.642 0.222 0.247 0.198 0.321 0.469l5.78 15.9q0.0494 0.0988 0.0494 0.222 0 0.198-0.173 0.37-0.148 0.148-0.37 0.148h-3.04q-0.37 0-0.568-0.173-0.173-0.198-0.222-0.346l-0.963-2.52h-6.59l-0.938 2.52q-0.0494 0.148-0.222 0.346-0.173 0.173-0.593 0.173zm5.8-6.59h4.59l-2.32-6.52zm19.6 6.84q-2.35 0-4.05-0.766-1.68-0.79-2.62-2.27-0.914-1.51-1.01-3.65-0.0247-1.06-0.0247-2.25 0-1.21 0.0247-2.3 0.0988-2.1 1.04-3.56 0.938-1.46 2.64-2.22 1.7-0.766 4-0.766 1.85 0 3.28 0.469 1.43 0.444 2.4 1.21 0.988 0.766 1.48 1.68 0.519 0.914 0.543 1.8 0.0247 0.222-0.148 0.37-0.148 0.148-0.37 0.148h-3.61q-0.272 0-0.42-0.0741-0.123-0.0988-0.222-0.272-0.173-0.37-0.519-0.766-0.321-0.42-0.914-0.716-0.568-0.296-1.51-0.296-1.41 0-2.22 0.741-0.79 0.741-0.864 2.37-0.0741 2.12 0 4.3 0.0741 1.73 0.914 2.49 0.84 0.766 2.22 0.766 0.938 0 1.65-0.321 0.741-0.321 1.16-0.988 0.42-0.691 0.42-1.75v-0.469h-2.32q-0.272 0-0.469-0.173-0.173-0.198-0.173-0.469v-1.83q0-0.272 0.173-0.444 0.198-0.198 0.469-0.198h6.22q0.272 0 0.444 0.198 0.173 0.173 0.173 0.444v2.82q0 2.12-0.963 3.63-0.963 1.51-2.74 2.32-1.75 0.79-4.1 0.79zm11.3-0.247q-0.272 0-0.444-0.173t-0.173-0.444v-16.1q0-0.272 0.173-0.444t0.444-0.173h11.5q0.272 0 0.444 0.173t0.173 0.444v2.32q0 0.272-0.173 0.444t-0.444 0.173h-7.88v3.33h7.33q0.272 0 0.444 0.198 0.173 0.173 0.173 0.444v2.15q0 0.247-0.173 0.444-0.173 0.173-0.444 0.173h-7.33v3.43h8.08q0.272 0 0.444 0.173t0.173 0.444v2.32q0 0.272-0.173 0.444t-0.444 0.173z" fill="#1294e0" stroke-width=".265" aria-label="TRIAGE"/><path d="m39.6 55.3q-1.93 0-3.36-0.593-1.41-0.617-2.2-1.75-0.766-1.14-0.766-2.72 0-1.06 0.42-1.9 0.42-0.84 1.16-1.53 0.766-0.691 1.75-1.26-0.938-1.04-1.36-1.9-0.395-0.889-0.395-1.78 0-1.16 0.593-2.12 0.593-0.988 1.78-1.61 1.21-0.617 2.99-0.617 1.65 0 2.79 0.593 1.14 0.593 1.73 1.58 0.617 0.963 0.617 2.1 0 0.988-0.444 1.78-0.42 0.79-1.21 1.46-0.766 0.642-1.78 1.23l2.94 2.94q0.173-0.321 0.543-1.01 0.37-0.691 0.716-1.8 0.0741-0.37 0.519-0.37h2.49q0.222 0 0.346 0.148 0.148 0.123 0.148 0.346-0.0247 0.444-0.247 1.09-0.222 0.617-0.593 1.33-0.37 0.691-0.815 1.36-0.444 0.642-0.864 1.16l2.74 2.79q0.198 0.198 0.198 0.37 0 0.198-0.123 0.321t-0.346 0.123h-3.36q-0.247 0-0.395-0.0741-0.148-0.0988-0.247-0.173l-1.11-1.06q-1.01 0.815-2.22 1.19-1.19 0.37-2.64 0.37zm0-3.14q0.716 0 1.36-0.222 0.667-0.222 1.19-0.691l-3.31-3.28q-0.642 0.346-1.14 0.889-0.469 0.519-0.469 1.23 0 0.642 0.346 1.11 0.346 0.469 0.889 0.716t1.14 0.247zm0.222-8.17q0.568-0.272 1.01-0.568 0.444-0.321 0.716-0.691t0.272-0.815q0-0.667-0.469-1.06-0.444-0.42-1.14-0.42-0.642 0-1.14 0.395-0.469 0.395-0.469 1.11 0 0.296 0.0988 0.593 0.123 0.296 0.395 0.667 0.272 0.346 0.716 0.79zm18.3 11.1q-0.247 0-0.444-0.173-0.173-0.173-0.173-0.444v-16.1q0-0.272 0.173-0.444 0.198-0.173 0.444-0.173h2.67q0.395 0 0.593 0.222 0.222 0.198 0.272 0.321l4.35 7.8 4.35-7.8q0.0741-0.123 0.247-0.321 0.198-0.222 0.617-0.222h2.64q0.272 0 0.444 0.173 0.198 0.173 0.198 0.444v16.1q0 0.272-0.198 0.444-0.173 0.173-0.444 0.173h-2.94q-0.272 0-0.469-0.173-0.173-0.173-0.173-0.444v-9.26l-2.79 5.16q-0.0988 0.222-0.296 0.395-0.198 0.173-0.543 0.173h-1.28q-0.346 0-0.543-0.173t-0.321-0.395l-2.79-5.16v9.26q0 0.272-0.173 0.444-0.173 0.173-0.444 0.173zm26.9 0.247q-2.27 0-3.95-0.741t-2.62-2.22q-0.938-1.51-1.04-3.75-0.0247-1.06-0.0247-2.12 0-1.06 0.0247-2.15 0.0988-2.22 1.04-3.73 0.963-1.53 2.64-2.3 1.68-0.766 3.93-0.766 2.22 0 3.9 0.766 1.7 0.766 2.67 2.3 0.963 1.51 1.04 3.73 0.0494 1.09 0.0494 2.15 0 1.06-0.0494 2.12-0.0988 2.25-1.04 3.75-0.938 1.48-2.62 2.22-1.68 0.741-3.95 0.741zm0-3.56q1.31 0 2.12-0.79 0.84-0.79 0.889-2.52 0.0494-1.09 0.0494-2.05 0-0.963-0.0494-2-0.0494-1.16-0.444-1.88-0.37-0.741-1.04-1.09-0.667-0.346-1.53-0.346-0.84 0-1.51 0.346-0.667 0.346-1.06 1.09-0.395 0.716-0.444 1.88-0.0247 1.04-0.0247 2 0 0.963 0.0247 2.05 0.0741 1.73 0.889 2.52 0.815 0.79 2.12 0.79zm14.7 3.31q-0.272 0-0.444-0.173t-0.173-0.444v-12.8h-4.4q-0.272 0-0.444-0.173-0.173-0.198-0.173-0.444v-2.64q0-0.272 0.173-0.444 0.173-0.173 0.444-0.173h13.3q0.272 0 0.444 0.173t0.173 0.444v2.64q0 0.247-0.173 0.444-0.173 0.173-0.444 0.173h-4.4v12.8q0 0.272-0.173 0.444t-0.444 0.173zm11.8 0q-0.272 0-0.444-0.173t-0.173-0.444v-16.1q0-0.272 0.173-0.444t0.444-0.173h3.31q0.272 0 0.444 0.173t0.173 0.444v16.1q0 0.272-0.173 0.444t-0.444 0.173zm14.4 0.247q-2.27 0-3.95-0.741t-2.62-2.22q-0.938-1.51-1.04-3.75-0.0247-1.06-0.0247-2.12 0-1.06 0.0247-2.15 0.0988-2.22 1.04-3.73 0.963-1.53 2.64-2.3 1.68-0.766 3.93-0.766 2.22 0 3.9 0.766 1.7 0.766 2.67 2.3 0.963 1.51 1.04 3.73 0.0494 1.09 0.0494 2.15 0 1.06-0.0494 2.12-0.0988 2.25-1.04 3.75-0.938 1.48-2.62 2.22t-3.95 0.741zm0-3.56q1.31 0 2.12-0.79 0.84-0.79 0.889-2.52 0.0494-1.09 0.0494-2.05 0-0.963-0.0494-2-0.0494-1.16-0.444-1.88-0.37-0.741-1.04-1.09-0.667-0.346-1.53-0.346-0.84 0-1.51 0.346-0.667 0.346-1.06 1.09-0.395 0.716-0.444 1.88-0.0247 1.04-0.0247 2 0 0.963 0.0247 2.05 0.0741 1.73 0.889 2.52 0.815 0.79 2.12 0.79zm11.1 3.31q-0.272 0-0.444-0.173t-0.173-0.444v-16.1q0-0.272 0.173-0.444t0.444-0.173h2.62q0.42 0 0.593 0.198 0.198 0.173 0.247 0.272l6.03 9.51v-9.36q0-0.272 0.173-0.444t0.444-0.173h2.96q0.272 0 0.444 0.173t0.173 0.444v16.1q0 0.247-0.173 0.444-0.173 0.173-0.444 0.173h-2.64q-0.395 0-0.593-0.198-0.173-0.198-0.222-0.272l-6.03-9.14v8.99q0 0.272-0.173 0.444t-0.444 0.173z" fill="#ff0470" stroke="#010915" stroke-width="3.18" style="paint-order:stroke fill markers" aria-label="&amp; MOTION"/></svg>
